<svg width="229" height="783" viewBox="0 0 229 783" fill="none" xmlns="http://www.w3.org/2000/svg">
<path opacity="0.2" d="M167.636 128.739C178.432 127.46 186.812 122.276 192.778 113.185C198.744 104.094 201.727 92.9432 201.727 79.733C201.727 70.0739 200.165 61.6222 197.04 54.3778C193.915 47.2045 189.618 41.5938 184.149 37.5455C178.68 33.5682 172.466 31.5795 165.506 31.5795C159.682 31.5795 154.675 32.9645 150.484 35.7344C146.365 38.5753 142.92 42.1974 140.151 46.6009C137.452 51.0043 135.214 55.6207 133.439 60.4503C131.734 65.2798 130.349 69.7188 129.284 73.767L123.318 95.9261C121.827 101.608 119.767 107.929 117.139 114.889C114.511 121.92 110.925 128.632 106.379 135.024C101.905 141.487 96.152 146.814 89.1207 151.004C82.0895 155.195 73.4602 157.29 63.233 157.29C51.4432 157.29 40.7898 154.2 31.2727 148.021C21.7557 141.913 14.1918 132.964 8.58097 121.175C2.97017 109.456 0.164772 95.2159 0.164772 78.4545C0.164772 62.8295 2.68608 49.2997 7.72869 37.8651C12.7713 26.5014 19.8026 17.5526 28.8224 11.0185C37.8423 4.5554 48.3182 0.897728 60.25 0.0454551V27.3182C52.0114 28.0284 45.1932 30.7983 39.7955 35.6278C34.4688 40.5284 30.4915 46.7074 27.8636 54.1648C25.3068 61.6932 24.0284 69.7898 24.0284 78.4545C24.0284 88.5398 25.6619 97.5952 28.929 105.621C32.267 113.646 36.8835 120.003 42.7784 124.69C48.7443 129.378 55.7045 131.722 63.6591 131.722C70.9034 131.722 76.7983 129.697 81.3438 125.649C85.8892 121.601 89.5824 116.274 92.4233 109.669C95.2642 103.064 97.75 95.9261 99.8807 88.2557L107.551 61.4091C112.452 44.3636 119.447 30.8693 128.538 20.9261C137.629 10.983 149.526 6.01136 164.227 6.01136C176.443 6.01136 187.097 9.31392 196.188 15.919C205.349 22.5952 212.452 31.544 217.494 42.7656C222.608 54.0582 225.165 66.6648 225.165 80.5852C225.165 94.6477 222.643 107.148 217.601 118.085C212.629 129.023 205.811 137.688 197.146 144.08C188.482 150.543 178.645 153.952 167.636 154.307V128.739ZM222.182 222.462L4 222.462V197.32L222.182 197.32V222.462ZM4 268.511H167.636L167.636 293.653H4V268.511ZM194.909 281.295C194.909 276.395 196.578 272.169 199.916 268.618C203.254 265.138 207.267 263.398 211.955 263.398C216.642 263.398 220.655 265.138 223.993 268.618C227.331 272.169 229 276.395 229 281.295C229 286.196 227.331 290.386 223.993 293.866C220.655 297.418 216.642 299.193 211.955 299.193C207.267 299.193 203.254 297.418 199.916 293.866C196.578 290.386 194.909 286.196 194.909 281.295ZM0.590909 401.493C0.590909 387.856 4.03551 375.818 10.9247 365.377C17.8849 354.937 27.6861 346.77 40.3281 340.875C53.0412 334.98 68.0625 332.032 85.392 332.032C102.58 332.032 117.494 334.98 130.136 340.875C142.778 346.77 152.544 354.973 159.433 365.484C166.322 375.995 169.767 388.14 169.767 401.919C169.767 412.572 167.991 420.988 164.44 427.167C160.96 433.417 156.983 438.176 152.509 441.443C148.105 444.781 144.483 447.373 141.642 449.22V451.351H222.182V476.493H4V452.203H29.142V449.22C26.1591 447.373 22.3949 444.745 17.8494 441.336C13.375 437.927 9.36222 433.062 5.81108 426.741C2.33097 420.42 0.590909 412.004 0.590909 401.493ZM23.1761 404.902C23.1761 414.987 25.804 423.51 31.0597 430.47C36.3864 437.43 43.7372 442.721 53.1122 446.343C62.5582 449.966 73.4602 451.777 85.8182 451.777C98.0341 451.777 108.723 450.001 117.885 446.45C127.118 442.899 134.291 437.643 139.405 430.683C144.589 423.723 147.182 415.129 147.182 404.902C147.182 394.248 144.447 385.37 138.979 378.268C133.581 371.237 126.23 365.946 116.926 362.395C107.693 358.914 97.3239 357.174 85.8182 357.174C74.1705 357.174 63.5881 358.95 54.071 362.501C44.625 366.123 37.0966 371.45 31.4858 378.481C25.946 385.583 23.1761 394.39 23.1761 404.902ZM0.590909 594.639C0.590909 578.872 4.07102 565.271 11.0313 553.836C18.0625 542.473 27.8636 533.701 40.4347 527.522C53.0767 521.414 67.7784 518.36 84.5398 518.36C101.301 518.36 116.074 521.414 128.858 527.522C141.713 533.701 151.727 542.295 158.901 553.304C166.145 564.383 169.767 577.309 169.767 592.082C169.767 600.605 168.347 609.021 165.506 617.331C162.665 625.64 158.048 633.204 151.656 640.022C145.335 646.841 136.955 652.274 126.514 656.322C116.074 660.37 103.219 662.395 87.9489 662.395H77.2955L77.2955 536.258H99.0284L99.0284 636.826C108.261 636.826 116.5 634.98 123.744 631.287C130.989 627.664 136.706 622.48 140.896 615.733C145.087 609.056 147.182 601.173 147.182 592.082C147.182 582.068 144.696 573.403 139.724 566.088C134.824 558.843 128.432 553.268 120.548 549.362C112.665 545.456 104.213 543.502 95.1932 543.502H80.7045C68.3466 543.502 57.8707 545.633 49.277 549.895C40.7543 554.227 34.2557 560.228 29.7813 567.899C25.3778 575.569 23.1761 584.483 23.1761 594.639C23.1761 601.244 24.0994 607.21 25.946 612.537C27.8636 617.934 30.7045 622.586 34.4688 626.493C38.304 630.399 43.0625 633.417 48.7443 635.548L41.9261 659.838C33.6875 657.281 26.4432 652.984 20.1932 646.947C14.0142 640.91 9.18466 633.453 5.70455 624.575C2.29545 615.697 0.590909 605.718 0.590909 594.639ZM4 700.64H167.636V724.93H142.92V726.635C151.017 729.618 157.587 735.015 162.629 742.828C167.672 750.64 170.193 759.447 170.193 769.248C170.193 771.095 170.158 773.403 170.087 776.173C170.016 778.943 169.909 781.038 169.767 782.458H144.199C144.412 781.606 144.732 779.653 145.158 776.599C145.655 773.616 145.903 770.456 145.903 767.118C145.903 759.163 144.234 752.061 140.896 745.811C137.629 739.632 133.084 734.731 127.26 731.109C121.507 727.558 114.938 725.782 107.551 725.782H4V700.64Z" fill="#FDFFFC"/>
</svg>
